{
  "accessors": [
    {
      "bufferView": 2,
      "componentType": 5126,
      "count": 8815,
      "max": [
        48.73439025878906,
        56.62911605834961,
        43.01302719116211
      ],
      "min": [
        -21.999238967895508,
        -54.44693374633789,
        -7.132270812988281
      ],
      "type": "VEC3"
    },
    {
      "bufferView": 2,
      "byteOffset": 105780,
      "componentType": 5126,
      "count": 8815,
      "max": [
        0.999956488609314,
        1.0,
        1.0
      ],
      "min": [
        -0.9999985694885254,
        -1.0,
        -1.0
      ],
      "type": "VEC3"
    },
    {
      "bufferView": 3,
      "componentType": 5126,
      "count": 8815,
      "max": [
        0.9998303651809692,
        0.9999971389770508,
        0.9999993443489075,
        1.0
      ],
      "min": [
        -1.0,
        -0.9999987483024597,
        -0.9999998807907104,
        -1.0
      ],
      "type": "VEC4"
    },
    {
      "bufferView": 1,
      "componentType": 5126,
      "count": 8815,
      "max": [
        0.9959526062011719,
        0.9943780899047852
      ],
      "min": [
        0.0053983633406460285,
        -4.497763583799497e-08
      ],
      "type": "VEC2"
    },
    {
      "bufferView": 0,
      "componentType": 5125,
      "count": 38460,
      "type": "SCALAR"
    },
    {
      "bufferView": 2,
      "byteOffset": 211560,
      "componentType": 5126,
      "count": 16890,
      "max": [
        22.376623153686523,
        51.28997039794922,
        29.42820930480957
      ],
      "min": [
        -14.629440307617188,
        -51.330509185791016,
        3.9643702507019043
      ],
      "type": "VEC3"
    },
    {
      "bufferView": 2,
      "byteOffset": 414240,
      "componentType": 5126,
      "count": 16890,
      "max": [
        0.9999788403511047,
        1.0,
        0.9996034502983093
      ],
      "min": [
        -0.9999788403511047,
        -1.0,
        -0.9999287128448486
      ],
      "type": "VEC3"
    },
    {
      "bufferView": 3,
      "byteOffset": 141040,
      "componentType": 5126,
      "count": 16890,
      "max": [
        0.9999533891677856,
        1.0,
        0.999911904335022,
        1.0
      ],
      "min": [
        -0.9998313188552856,
        -1.0,
        -0.9999321103096008,
        -1.0
      ],
      "type": "VEC4"
    },
    {
      "bufferView": 1,
      "byteOffset": 70520,
      "componentType": 5126,
      "count": 16890,
      "max": [
        0.9958460927009583,
        1.0
      ],
      "min": [
        0.0,
        0.0007355809211730957
      ],
      "type": "VEC2"
    },
    {
      "bufferView": 0,
      "byteOffset": 153840,
      "componentType": 5125,
      "count": 74850,
      "type": "SCALAR"
    }
  ],
  "asset": {
    "extras": {
      "author": "ArchViz (https://sketchfab.com/Archivz)",
      "license": "CC-BY-4.0 (http://creativecommons.org/licenses/by/4.0/)",
      "source": "https://sketchfab.com/3d-models/yamaha-guitar-classique-af49db8315b94a5cbdee18af7bb7360e",
      "title": "Yamaha Guitar Classique"
    },
    "generator": "Sketchfab-15.30.0",
    "version": "2.0"
  },
  "bufferViews": [
    {
      "buffer": 0,
      "byteLength": 453240,
      "name": "floatBufferViews",
      "target": 34963
    },
    {
      "buffer": 0,
      "byteLength": 205640,
      "byteOffset": 453240,
      "byteStride": 8,
      "name": "floatBufferViews",
      "target": 34962
    },
    {
      "buffer": 0,
      "byteLength": 616920,
      "byteOffset": 658880,
      "byteStride": 12,
      "name": "floatBufferViews",
      "target": 34962
    },
    {
      "buffer": 0,
      "byteLength": 411280,
      "byteOffset": 1275800,
      "byteStride": 16,
      "name": "floatBufferViews",
      "target": 34962
    }
  ],
  "buffers": [
    {
      "byteLength": 1687080,
      "uri": "scene.bin"
    }
  ],
  "extensionsUsed": [
    "KHR_materials_specular"
  ],
  "images": [
    {
      "uri": "textures/Housse_baseColor.png"
    },
    {
      "uri": "textures/Housse_metallicRoughness.png"
    },
    {
      "uri": "textures/Housse_normal.png"
    },
    {
      "uri": "textures/Guitare_baseColor.png"
    },
    {
      "uri": "textures/Guitare_metallicRoughness.png"
    },
    {
      "uri": "textures/Guitare_normal.png"
    }
  ],
  "materials": [
    {
      "doubleSided": true,
      "extensions": {
        "KHR_materials_specular": {
          "specularColorFactor": [
            1.0,
            1.0,
            1.0
          ],
          "specularFactor": 0.7420974997257134
        }
      },
      "name": "Housse",
      "normalTexture": {
        "index": 2
      },
      "occlusionTexture": {
        "index": 1
      },
      "pbrMetallicRoughness": {
        "baseColorTexture": {
          "index": 0
        },
        "metallicRoughnessTexture": {
          "index": 1
        },
        "roughnessFactor": 0.8091453231095561
      }
    },
    {
      "doubleSided": true,
      "extensions": {
        "KHR_materials_specular": {
          "specularColorFactor": [
            1.0,
            1.0,
            1.0
          ],
          "specularFactor": 0.693335446355646
        }
      },
      "name": "Guitare",
      "normalTexture": {
        "index": 5
      },
      "occlusionTexture": {
        "index": 4
      },
      "pbrMetallicRoughness": {
        "baseColorTexture": {
          "index": 3
        },
        "metallicRoughnessTexture": {
          "index": 4
        },
        "roughnessFactor": 0.8579073764796235
      }
    }
  ],
  "meshes": [
    {
      "name": "SM_GuitarProtect_Housse_0",
      "primitives": [
        {
          "attributes": {
            "NORMAL": 1,
            "POSITION": 0,
            "TANGENT": 2,
            "TEXCOORD_0": 3
          },
          "indices": 4,
          "material": 0,
          "mode": 4
        }
      ]
    },
    {
      "name": "SM_GuitarProtect_Guitare_0",
      "primitives": [
        {
          "attributes": {
            "NORMAL": 6,
            "POSITION": 5,
            "TANGENT": 7,
            "TEXCOORD_0": 8
          },
          "indices": 9,
          "material": 1,
          "mode": 4
        }
      ]
    }
  ],
  "nodes": [
    {
      "children": [
        1
      ],
      "matrix": [
        0.747967541217804,
        0.0,
        0.0,
        0.0,
        0.0,
        1.6608215718645435e-16,
        -0.747967541217804,
        0.0,
        0.0,
        0.747967541217804,
        1.6608215718645435e-16,
        0.0,
        0.0,
        0.0,
        0.0,
        1.0
      ],
      "name": "Sketchfab_model"
    },
    {
      "children": [
        2
      ],
      "matrix": [
        0.02539999969303608,
        0.0,
        0.0,
        0.0,
        0.0,
        0.0,
        0.02539999969303608,
        0.0,
        0.0,
        -0.02539999969303608,
        0.0,
        0.0,
        0.0,
        0.0,
        0.0,
        1.0
      ],
      "name": "849fb28f4ec148d09e2921f368b0c95e.fbx"
    },
    {
      "children": [
        3
      ],
      "name": "RootNode"
    },
    {
      "children": [
        4,
        5
      ],
      "matrix": [
        1.0,
        0.0,
        0.0,
        0.0,
        0.0,
        2.220446049250313e-16,
        -1.0,
        0.0,
        0.0,
        1.0,
        2.220446049250313e-16,
        0.0,
        -0.09022712707519531,
        0.3547859191894531,
        1.6325371265411377,
        1.0
      ],
      "name": "SM_GuitarProtect"
    },
    {
      "mesh": 0,
      "name": "SM_GuitarProtect_Housse_0"
    },
    {
      "mesh": 1,
      "name": "SM_GuitarProtect_Guitare_0"
    }
  ],
  "samplers": [
    {
      "magFilter": 9729,
      "minFilter": 9987,
      "wrapS": 10497,
      "wrapT": 10497
    }
  ],
  "scene": 0,
  "scenes": [
    {
      "name": "Sketchfab_Scene",
      "nodes": [
        0
      ]
    }
  ],
  "textures": [
    {
      "sampler": 0,
      "source": 0
    },
    {
      "sampler": 0,
      "source": 1
    },
    {
      "sampler": 0,
      "source": 2
    },
    {
      "sampler": 0,
      "source": 3
    },
    {
      "sampler": 0,
      "source": 4
    },
    {
      "sampler": 0,
      "source": 5
    }
  ]
}
